<svg id="Layer_4" data-name="Layer 4" xmlns="http://www.w3.org/2000/svg" viewBox="0 0 171 242"><defs><style>.cls-1{fill:#d8d8d8;fill-opacity:0.5;}.cls-2{isolation:isolate;}.cls-3,.cls-4{fill:#454f5b;}.cls-4{fill-rule:evenodd;}</style></defs><g id="Layer_2" data-name="Layer 2"><g id="Layer_1-2" data-name="Layer 1-2"><path class="cls-1" d="M20,0H151a20.06,20.06,0,0,1,20,20V151a20.06,20.06,0,0,1-20,20H20A20.06,20.06,0,0,1,0,151V20A20.06,20.06,0,0,1,20,0Z"/><g class="cls-2"><g class="cls-2"><path class="cls-3" d="M74.66,211.24c0,2.18-1.72,3.44-5,3.44H63.1v-12.6h6.16c3.15,0,4.77,1.31,4.77,3.27a3,3,0,0,1-1.67,2.78A3.11,3.11,0,0,1,74.66,211.24Zm-8.66-7v3h2.9c1.42,0,2.2-.5,2.2-1.49s-.78-1.48-2.2-1.48Zm5.73,6.66c0-1.06-.81-1.56-2.32-1.56H66v3.11h3.41C70.92,212.48,71.73,212,71.73,210.93Z"/><path class="cls-3" d="M85.25,209.15v5.53H82.62v-1.21a3.16,3.16,0,0,1-3,1.35c-2.27,0-3.62-1.26-3.62-2.93s1.2-2.9,4.16-2.9h2.23c0-1.21-.72-1.91-2.23-1.91a4.68,4.68,0,0,0-2.8.9l-1-2a7.41,7.41,0,0,1,4.17-1.17C83.54,204.85,85.25,206.22,85.25,209.15Zm-2.81,2.47v-1H80.51c-1.31,0-1.73.48-1.73,1.13s.6,1.17,1.59,1.17A2.08,2.08,0,0,0,82.44,211.62Z"/></g><g class="cls-2"><path class="cls-3" d="M98.34,209.84a4.7,4.7,0,0,1-4.83,5,3.75,3.75,0,0,1-3-1.26v1.12H87.79V201.32h2.8V206a3.78,3.78,0,0,1,2.92-1.17A4.71,4.71,0,0,1,98.34,209.84Zm-2.85,0A2.47,2.47,0,1,0,93,212.52,2.45,2.45,0,0,0,95.49,209.84Z"/></g><g class="cls-2"><path class="cls-3" d="M109.55,205l-4.37,10.28c-.94,2.34-2.27,3-4,3a4.29,4.29,0,0,1-2.7-.89l1-2a2.51,2.51,0,0,0,1.58.61c.77,0,1.21-.34,1.59-1.21l0-.09L98.5,205h2.89l2.72,6.57,2.74-6.57Z"/></g></g><path class="cls-3" d="M132.49,138.52H112.9a16,16,0,0,1-16-16V85.83a16,16,0,0,1,16-16h19.59a16,16,0,0,1,16,16v36.66A16,16,0,0,1,132.49,138.52ZM112.9,72.8a13.05,13.05,0,0,0-13,13v36.66a13.05,13.05,0,0,0,13,13h19.59a13.05,13.05,0,0,0,13-13V85.83a13.05,13.05,0,0,0-13-13Z"/><path class="cls-3" d="M147,91.33H112.44a1.5,1.5,0,0,1,0-3H147a1.5,1.5,0,0,1,0,3Z"/><path class="cls-3" d="M147,99.38H135.31a1.5,1.5,0,0,1,0-3H147a1.5,1.5,0,0,1,0,3Z"/><path class="cls-3" d="M147,107.42H135.31a1.5,1.5,0,0,1,0-3H147a1.5,1.5,0,0,1,0,3Z"/><path class="cls-3" d="M147,115.5H135.31a1.5,1.5,0,0,1,0-3H147a1.5,1.5,0,0,1,0,3Z"/><path class="cls-3" d="M147,123.5H135.31a1.5,1.5,0,0,1,0-3H147a1.5,1.5,0,0,1,0,3Z"/><path class="cls-3" d="M107.3,61.43a1.63,1.63,0,0,1-.31,0,1.51,1.51,0,0,1-1.16-1.78c.75-3.49,3.25-5.09,5.46-6.5s4.19-2.67,4.19-5.87V40.84a7.39,7.39,0,0,1,7.12-7.5h.1a7.4,7.4,0,0,1,7.12,7.53v6.38c0,3.19,1.85,4.38,4.19,5.87s4.71,3,5.46,6.5a1.5,1.5,0,0,1-2.94.62c-.48-2.26-2.17-3.34-4.13-4.59-2.49-1.59-5.58-3.56-5.58-8.4V40.84a4.18,4.18,0,1,0-8.34,0v6.44c0,4.84-3.09,6.81-5.57,8.4-2,1.25-3.66,2.33-4.14,4.59A1.5,1.5,0,0,1,107.3,61.43Z"/><path class="cls-3" d="M136.09,72.79h-26.8a7.18,7.18,0,0,1,0-14.36h26.8a7.18,7.18,0,1,1,0,14.36Zm-26.8-11.36a4.18,4.18,0,0,0,0,8.36h26.8a4.18,4.18,0,1,0,0-8.36Z"/><path class="cls-3" d="M81.06,56.16H28.39a3.8,3.8,0,0,1-3.8-3.8V46.7a3.8,3.8,0,0,1,3.8-3.8H81.06a3.8,3.8,0,0,1,3.8,3.8v5.66A3.8,3.8,0,0,1,81.06,56.16ZM28.39,45.9a.8.8,0,0,0-.8.8v5.66a.8.8,0,0,0,.8.8H81.06a.8.8,0,0,0,.8-.8V46.7a.8.8,0,0,0-.8-.8Z"/><path class="cls-3" d="M79.9,138H29.53a7.05,7.05,0,0,1-7-7.05V69.24a7.05,7.05,0,0,1,7.05-7H79.9a7.05,7.05,0,0,1,7,7V131A7.05,7.05,0,0,1,79.9,138ZM29.53,65.19a4.06,4.06,0,0,0-4.05,4V131A4.06,4.06,0,0,0,29.53,135H79.9A4.06,4.06,0,0,0,84,131V69.24a4.06,4.06,0,0,0-4-4Z"/><path class="cls-3" d="M31.75,65.18a1.5,1.5,0,0,1-1.5-1.5V55.8a1.5,1.5,0,0,1,3,0v7.88A1.5,1.5,0,0,1,31.75,65.18Z"/><path class="cls-3" d="M77.69,65.19a1.5,1.5,0,0,1-1.5-1.5V55.45a1.5,1.5,0,1,1,3,0v8.24A1.5,1.5,0,0,1,77.69,65.19Z"/><path class="cls-3" d="M85.46,127.85H24a1.5,1.5,0,0,1,0-3H85.46a1.5,1.5,0,1,1,0,3Z"/><path class="cls-3" d="M35.4,76.14H24a1.5,1.5,0,0,1,0-3H35.4a1.5,1.5,0,0,1,0,3Z"/><path class="cls-3" d="M85.46,76.14H47.91a1.5,1.5,0,0,1,0-3H85.46a1.5,1.5,0,0,1,0,3Z"/><path class="cls-3" d="M132.49,138.51H112.9a16,16,0,0,1-16-16V85.82a16,16,0,0,1,16-16h19.59a16,16,0,0,1,16,16v36.66A16,16,0,0,1,132.49,138.51ZM112.9,72.79a13.05,13.05,0,0,0-13,13v36.66a13,13,0,0,0,13,13h19.59a13,13,0,0,0,13-13V85.82a13.05,13.05,0,0,0-13-13Z"/><path class="cls-3" d="M147,91.33H112.44a1.5,1.5,0,0,1,0-3H147a1.5,1.5,0,0,1,0,3Z"/><path class="cls-3" d="M147,99.38H135.31a1.5,1.5,0,0,1,0-3H147a1.5,1.5,0,0,1,0,3Z"/><path class="cls-3" d="M147,107.42H135.31a1.5,1.5,0,0,1,0-3H147a1.5,1.5,0,0,1,0,3Z"/><path class="cls-3" d="M147,115.5H135.31a1.5,1.5,0,0,1,0-3H147a1.5,1.5,0,0,1,0,3Z"/><path class="cls-3" d="M147,123.5H135.31a1.5,1.5,0,0,1,0-3H147a1.5,1.5,0,0,1,0,3Z"/><path class="cls-3" d="M138,61.43a1.5,1.5,0,0,1-1.47-1.19c-.48-2.26-2.17-3.34-4.13-4.59-2.49-1.59-5.58-3.56-5.58-8.4V40.84a4.19,4.19,0,1,0-8.35,0v6.44c0,4.84-3.09,6.81-5.57,8.4-2,1.25-3.65,2.33-4.13,4.59a1.5,1.5,0,1,1-2.94-.62c.75-3.49,3.25-5.09,5.45-6.5s4.19-2.67,4.19-5.87V40.84a7.18,7.18,0,1,1,14.35,0v6.38c0,3.19,1.85,4.38,4.19,5.87s4.71,3,5.46,6.5a1.5,1.5,0,0,1-1.16,1.78A1.63,1.63,0,0,1,138,61.43Z"/><path class="cls-3" d="M136.09,72.79h-26.8a7.18,7.18,0,0,1,0-14.36h26.8a7.18,7.18,0,1,1,0,14.36Zm-26.8-11.36a4.18,4.18,0,0,0,0,8.36h26.8a4.18,4.18,0,1,0,0-8.36Z"/><path class="cls-3" d="M81.06,56.16H28.39a3.8,3.8,0,0,1-3.8-3.8V46.7a3.8,3.8,0,0,1,3.8-3.8H81.06a3.8,3.8,0,0,1,3.8,3.8v5.66A3.8,3.8,0,0,1,81.06,56.16ZM28.39,45.9a.8.8,0,0,0-.8.8v5.66a.8.8,0,0,0,.8.8H81.06a.8.8,0,0,0,.8-.8V46.7a.8.8,0,0,0-.8-.8Z"/><path class="cls-3" d="M79.9,138H29.53a7.05,7.05,0,0,1-7-7.05V69.23a7.05,7.05,0,0,1,7.05-7.05H79.9a7.05,7.05,0,0,1,7,7.05V131A7.05,7.05,0,0,1,79.9,138ZM29.53,65.18a4.06,4.06,0,0,0-4.05,4V131A4.06,4.06,0,0,0,29.53,135H79.9A4.06,4.06,0,0,0,84,131V69.23a4.06,4.06,0,0,0-4-4Z"/><path class="cls-3" d="M31.75,65.18a1.5,1.5,0,0,1-1.5-1.5V55.8a1.5,1.5,0,0,1,3,0v7.88A1.5,1.5,0,0,1,31.75,65.18Z"/><path class="cls-3" d="M77.69,65.18a1.5,1.5,0,0,1-1.5-1.5V55.45a1.5,1.5,0,1,1,3,0v8.23A1.5,1.5,0,0,1,77.69,65.18Z"/><path class="cls-3" d="M85.46,127.85H24a1.5,1.5,0,0,1,0-3H85.46a1.5,1.5,0,1,1,0,3Z"/><path class="cls-3" d="M35.4,76.14H24a1.5,1.5,0,0,1,0-3H35.4a1.5,1.5,0,0,1,0,3Z"/><path class="cls-3" d="M85.46,76.14H47.91a1.5,1.5,0,0,1,0-3H85.46a1.5,1.5,0,0,1,0,3Z"/><path class="cls-4" d="M74.5,90.26H75c3.37,0,6,3.23,6,7.35,0,3.4-1.81,6.2-4.34,7.07a21.8,21.8,0,0,1-42.59,0c-2.53-.87-4.34-3.67-4.34-7.07,0-4.12,2.65-7.35,6-7.35h.44A21.78,21.78,0,0,1,55.34,78.94h1a2.17,2.17,0,0,1,.88,0A21.72,21.72,0,0,1,74.5,90.26Zm.41,10.48H75c.81,0,1.74-1.41,1.74-3.16s-1-3.16-1.78-3.16a.91.91,0,0,0-.48.15,2.19,2.19,0,0,1-1.75.2,2.15,2.15,0,0,1-1.3-1.17A17.42,17.42,0,0,0,57.21,83.23a2.68,2.68,0,0,0-1,1.58c0,.51.59,1.21,1.64,1.9a2.09,2.09,0,0,1,.59,2.9h0a2.12,2.12,0,0,1-1.77.92,2.15,2.15,0,0,1-1.18-.35c-2.37-1.57-3.55-3.41-3.52-5.46a4.91,4.91,0,0,1,.21-1.31A17.44,17.44,0,0,0,39.25,93.6,2.09,2.09,0,0,1,38,94.77a2.15,2.15,0,0,1-1.75-.19.87.87,0,0,0-.47-.15C35,94.43,34,95.81,34,97.59s.92,3.11,1.73,3.16h.21A2.12,2.12,0,0,1,38,102.57a17.51,17.51,0,0,0,34.68,0A2.12,2.12,0,0,1,74.91,100.74Z"/><path class="cls-3" d="M49.3,99.41a1.49,1.49,0,0,0,1.32.8A1.48,1.48,0,0,0,52,98.12l0-.07a4.66,4.66,0,0,0-8.26,0,1.46,1.46,0,0,0,.58,2l.07,0a1.49,1.49,0,0,0,2-.64,1.67,1.67,0,0,1,3,0Z"/><path class="cls-3" d="M62.85,95.58a4.61,4.61,0,0,0-4.12,2.5,1.46,1.46,0,0,0,.58,2l.07,0a1.5,1.5,0,0,0,2-.64,1.67,1.67,0,0,1,2.24-.71,1.62,1.62,0,0,1,.71.71,1.47,1.47,0,0,0,1.33.8,1.57,1.57,0,0,0,.67-.16A1.44,1.44,0,0,0,67,98.15l0-.07A4.61,4.61,0,0,0,62.85,95.58Z"/><path class="cls-4" d="M49.35,104.38h12a1.47,1.47,0,0,1,1.49,1.45h0c0,5-3.35,9.12-7.47,9.12s-7.48-4.09-7.48-9.12A1.48,1.48,0,0,1,49.35,104.38ZM51,107.3c.5,2.68,2.3,4.73,4.38,4.73s3.87-2,4.37-4.73Z"/><path class="cls-4" d="M74.5,90.26H75c3.37,0,6,3.23,6,7.35,0,3.4-1.81,6.2-4.34,7.07a21.8,21.8,0,0,1-42.59,0c-2.53-.87-4.34-3.67-4.34-7.07,0-4.12,2.65-7.35,6-7.35h.44A21.78,21.78,0,0,1,55.34,78.94h1a2.17,2.17,0,0,1,.88,0A21.72,21.72,0,0,1,74.5,90.26Zm.41,10.48H75c.81,0,1.74-1.41,1.74-3.16s-1-3.16-1.78-3.16a.91.91,0,0,0-.48.15,2.19,2.19,0,0,1-1.75.2,2.15,2.15,0,0,1-1.3-1.17A17.42,17.42,0,0,0,57.21,83.23a2.68,2.68,0,0,0-1,1.58c0,.51.59,1.21,1.64,1.9a2.09,2.09,0,0,1,.59,2.9h0a2.12,2.12,0,0,1-1.77.92,2.15,2.15,0,0,1-1.18-.35c-2.37-1.57-3.55-3.41-3.52-5.46a4.91,4.91,0,0,1,.21-1.31A17.44,17.44,0,0,0,39.25,93.6,2.09,2.09,0,0,1,38,94.77a2.15,2.15,0,0,1-1.75-.19.87.87,0,0,0-.47-.15C35,94.43,34,95.81,34,97.59s.92,3.11,1.73,3.16h.21A2.12,2.12,0,0,1,38,102.57a17.51,17.51,0,0,0,34.68,0A2.12,2.12,0,0,1,74.91,100.74Z"/><path class="cls-3" d="M49.3,99.41a1.49,1.49,0,0,0,1.32.8A1.48,1.48,0,0,0,52,98.12l0-.07a4.66,4.66,0,0,0-8.26,0,1.46,1.46,0,0,0,.58,2l.07,0a1.49,1.49,0,0,0,2-.64,1.67,1.67,0,0,1,3,0Z"/><path class="cls-3" d="M62.85,95.58a4.61,4.61,0,0,0-4.12,2.5,1.46,1.46,0,0,0,.58,2l.07,0a1.5,1.5,0,0,0,2-.64,1.67,1.67,0,0,1,2.24-.71,1.62,1.62,0,0,1,.71.71,1.47,1.47,0,0,0,1.33.8,1.57,1.57,0,0,0,.67-.16A1.44,1.44,0,0,0,67,98.15l0-.07A4.61,4.61,0,0,0,62.85,95.58Z"/><path class="cls-4" d="M49.35,104.38h12a1.47,1.47,0,0,1,1.49,1.45h0c0,5-3.35,9.12-7.47,9.12s-7.48-4.09-7.48-9.12A1.48,1.48,0,0,1,49.35,104.38ZM51,107.3c.5,2.68,2.3,4.73,4.38,4.73s3.87-2,4.37-4.73Z"/></g></g></svg>